<svg id="图层_1" data-name="图层 1" xmlns="http://www.w3.org/2000/svg" viewBox="0 0 1024 1024"><defs><style>.cls-1{fill:#fff;}.cls-2{fill:#3b4260;}.cls-3{fill:#49474a;}</style></defs><title>normal-square</title><rect class="cls-1" width="1024" height="1024"/><path class="cls-2" d="M746.25,198.76C724,220,698.92,238.12,680.18,252.89c82.2,27,103.2,80.5,108.57,146.48,15,2.2,28.12,4.66,39.67,7.34C827.85,318.38,825.48,242.24,746.25,198.76Z"/><path class="cls-2" d="M526.43,233.82c48.74,0,92.36,1.81,131,10.27,21-19.17,51-48.71,89.5-74.2-60.47-6.44-133.1-9.9-220.53-9.9-88.8,0-162.35,3.57-223.38,10.21,38.36,25.45,68.33,54.95,89.24,74.08C432.05,237,476.4,233.82,526.43,233.82Z"/><path class="cls-2" d="M370.15,253.35c-18.7-14.69-43.72-32.74-65.94-53.91-77.84,43.47-80.41,118.41-81,206C234.8,402.82,248,401,263,398.86,268.37,333.48,289.29,280.42,370.15,253.35Z"/><circle class="cls-2" cx="526.3" cy="663.81" r="28.38"/><path class="cls-2" d="M547,445c0-63.76-9.48-28.86-21.17-28.86s-21.17-34.9-21.17,28.86,9.48,103.91,21.17,103.91S547,508.8,547,445Z"/><path class="cls-2" d="M524.76,265.17c-222.82,0-221.67,58.14-221,132.12-1.7,10.36-2.52,22.69-2.52,37.36C301.26,548,350.1,645,477.7,664.05a48.82,48.82,0,0,1,36.54-44.45c-.48-10.24-.93-21.08-1.33-32.48-106-6-121.4-55.24-121.4-152.94,0-98.47,16-52,123.92-57.81.56-9.5,1.16-18.28,1.79-26.26-63.35,1.43-110.72-4.76-144.69-4.52,26.18-12,72.05-19.06,152.31-19.06,81,0,127.09,7.21,153.35,19.38-33.7-.09-80.41,5.85-142.61,4.24.63,8,1.23,16.79,1.79,26.3,107,6.36,122.74-40.36,122.74,57.74,0,97.33-15.06,146.34-120.22,152.86-.4,11.42-.84,22.3-1.33,32.56a48.82,48.82,0,0,1,36.53,44.27c126.73-19.42,175.28-116.22,175.28-229.22,0-17.12-1.12-31-3.45-42.35C747.37,320.72,742.55,265.17,524.76,265.17Z"/><path class="cls-2" d="M795.37,724.23c0,.92-.07,1.8-.11,2.63a3.94,3.94,0,0,1,3,3.58c10.24-1.57,14.16-9.39,14.16-18.52a17.26,17.26,0,0,0-.28-3.42c0-5.78-.35-10.27-18-10.27-18,0-17.91,4.7-17.86,10.68a18.9,18.9,0,0,0-.2,3c0,9.16,3.95,17,14.26,18.54a3.94,3.94,0,0,1,3-3.59c0-.83-.07-1.7-.11-2.62"/><polygon class="cls-3" points="283.23 857.61 247.26 805.63 280.78 757.26 314.83 757.26 276.34 804.19 317.9 857.61 283.23 857.61"/><rect class="cls-3" x="220" y="695.31" width="27.14" height="162.31"/><path class="cls-3" d="M384.73,744.2,398,757.46C379,761.22,365.54,773,365.54,773V717.47H338.4V857.61h27.14V800c0-7.32,2-13.48,6-18.31a20.09,20.09,0,0,1,16.2-7.52c9,0,19.73,4.52,19.73,26v57.41h27v-63C434.61,766.54,433.59,744.2,384.73,744.2Z"/><path class="cls-3" d="M509,857.5c-18.56,0-54.14-.83-54.14-52.28,0-27.22,6.77-54.42,50.18-54.42,45.79,0,45.73,33.39,45.73,48.31v11H481.05c.55,21.36,8.22,32.13,32.41,33.83,10.29.72,24.65-1.66,33-6.93v12.19C537,854.73,523.72,857.5,509,857.5Zm-4.17-91.69c-18.55,0-23.53,20.5-23.53,29.77H526v-2.77C526,774.12,517.34,765.81,504.86,765.81Z"/><path class="cls-3" d="M697.69,857.61V756.71h27.14V763c9.68-6.37,18.85-8.19,31.1-8.19a24.27,24.27,0,0,1,5.3.49l-.12,21c-10.25,11.08-17.73-13-22.71,6.93-1.74,6.94-13.56-31.3-13.56,12.19v62.16Z"/><rect class="cls-3" x="780.58" y="743.41" width="27.14" height="114.2"/><path class="cls-3" d="M680.49,797.11c0-13.76-6.65-26.59-16.07-33.79s-19.05-9.14-32.69-9.14c-11.36,0-24.38,3.6-31.6,11.64v-8.55H573V906.32h27.14l0-60.82c17.45,20.31,78.12,17.82,80.05-31.76C680.6,803.84,680.49,797.11,680.49,797.11ZM632,840.88c-18.84,0-31.89-9.14-31.89-34.93,0-29.89,11.67-31.17,21.18-31.17,1.58,0,3.47-9.15,4.1-.63,1.28,17.3,34.86,2.1,34.86,28.78C660.27,828.41,649.19,840.88,632,840.88Z"/></svg>