<svg id="图层_1" data-name="图层 1" xmlns="http://www.w3.org/2000/svg" viewBox="0 0 9156 2836"><defs><style>.cls-1{fill:#fff;}.cls-2{fill:#3b4260;}.cls-3{font-size:114.35px;font-family:MicrosoftPhagsPa, Microsoft PhagsPa;}.cls-3,.cls-8{fill:#49474a;}.cls-4{fill:#7e9cb7;}.cls-5{fill:#cbd9e3;}.cls-6{fill:#c2b9b3;}.cls-7{fill:#e6e2df;}.cls-9{fill:#4a0f75;}.cls-10{fill:#790e3a;}.cls-11{fill:#764a15;}.cls-12{fill:#3c7719;}.cls-13{fill:#166e76;}.cls-14{fill:#103b75;}.cls-15{fill:#24ad6f;}.cls-16{fill:#6e761a;}</style></defs><title>khepri_logo</title><rect class="cls-1" width="9156" height="2836"/><rect class="cls-2" x="610" y="378" width="599" height="599"/><text class="cls-3" transform="translate(674 1152)">PRIMARY<tspan x="15" y="137">#3B4260</tspan></text><rect class="cls-4" x="3263" y="378" width="599" height="599"/><text class="cls-3" transform="translate(3411 1152)">LIGHT<tspan x="-71" y="137">#7E9CB7</tspan></text><rect class="cls-5" x="4192" y="378" width="599" height="599"/><text class="cls-3" transform="translate(4204 1152)">HIGHLIGHT<tspan x="55" y="137">#CBD9E3</tspan></text><rect class="cls-6" x="5660" y="378" width="599" height="599"/><text class="cls-3" transform="translate(5818 1152)">GRAY<tspan x="-85" y="137">#C2B9B3</tspan></text><rect class="cls-7" x="6589" y="378" width="599" height="599"/><text class="cls-3" transform="translate(6697 1152)">BRIGHT<tspan x="-29" y="137">#E6E2DF</tspan></text><rect class="cls-8" x="1567" y="378" width="599" height="599"/><text class="cls-3" transform="translate(1543 1152)">SECONDARY<tspan x="99" y="137">#49474A</tspan></text><rect class="cls-9" x="610" y="1536" width="599" height="599"/><text class="cls-3" transform="translate(730 2310)">VIOLET<tspan x="-42" y="137">#4A0F75</tspan></text><rect class="cls-10" x="1567" y="1536" width="599" height="599"/><text class="cls-3" transform="translate(1644 2310)">SCARLET<tspan x="0" y="137">#790E3A</tspan></text><rect class="cls-11" x="2629" y="1536" width="599" height="599"/><text class="cls-3" transform="translate(2731 2310)">SIENNA<tspan x="-28" y="137">#764A15</tspan></text><rect class="cls-12" x="3586" y="1536" width="599" height="599"/><text class="cls-3" transform="translate(3711 2310)">GREEN<tspan x="-49" y="137">#3C7719</tspan></text><rect class="cls-13" x="4693" y="1536" width="599" height="599"/><text class="cls-3" transform="translate(4783 2310)">MARINE<tspan x="-7" y="137">#166E76</tspan></text><rect class="cls-14" x="5650" y="1536" width="599" height="599"/><text class="cls-3" transform="translate(5822 2310)">BLUE<tspan x="-93" y="137">#103B75</tspan></text><rect class="cls-15" x="6723" y="1536" width="599" height="599"/><text class="cls-3" transform="translate(6866 2310)">AQUA<tspan x="-75" y="137">#24AD6F</tspan></text><rect class="cls-16" x="7680" y="1536" width="599" height="599"/><text class="cls-3" transform="translate(7830 2310)">OLIVE<tspan x="-73" y="137">#6E761A</tspan></text></svg>