<svg id="图层_1" data-name="图层 1" xmlns="http://www.w3.org/2000/svg" viewBox="0 0 1403 1402"><defs><style>.cls-1{fill:#fff;}.cls-2{fill:#0071bc;}</style></defs><title>normal-circle</title><circle class="cls-1" cx="702" cy="701" r="701"/><circle class="cls-2" cx="701.52" cy="345.12" r="148.12"/><path class="cls-2" d="M1140.25,396.73c-102.11-194.12-290.62-56.1-290.62-56.1s162.7-14.59,75.18,129C861.17,574.11,701.52,519,701.52,519s-159.65,55.07-223.3-49.37c-87.52-143.63,75.18-129,75.18-129s-188.51-138-290.62,56.1c-94.68,180-53.86,407.32,15.71,529.62C430.15,1193,701.52,1208,701.52,1208s271.37-15,423-281.64C1194.11,804,1234.93,576.72,1140.25,396.73ZM878.23,715c-6.72-1.56-14.38-3-23.09-4.27-3.12-38.41-15.35-69.56-63.2-85.27,10.91-8.6,23-19.15,36-31.52C874,619.29,877.91,663.61,878.23,715ZM799.46,576.43c19.47-19.47,11.7-5.92,15.27-2.35s17.12-4.19-2.35,15.27-34.61,28.83-38.18,25.26S780,595.9,799.46,576.43Zm-97.36-5c29.66,0,54.3,2,74.81,5.76-13,14.84-23.24,28.14-30.36,39.3a474.11,474.11,0,0,0-90,.11c-7.09-11.14-17.26-24.41-30.27-39.23C647,573.49,672,571.42,702.09,571.42Zm-113.76,2.66c3.57-3.57-4.19-17.12,15.27,2.35s28.83,34.61,25.26,38.18-18.72-5.79-38.18-25.26S584.77,577.65,588.34,574.08Zm-12.76,20.3c12.94,12.32,25,22.83,35.89,31.38-47.07,15.76-59.25,46.64-62.39,84.7-8.7,1.24-16.4,2.3-23.15,3.82C526.27,663.31,530.26,619.68,575.58,594.38Zm80.6,521.73c-121.78-18.15-168.4-110.76-168.4-218.93,0-118.7,56.12-77.3,206.12-80.69-.6,7.61-1.18,16-1.71,25.06-103,5.57-143.82-38.8-143.82,55.18,0,93.24,40.21,140.2,141.41,146,.38,10.88.8,21.23,1.27,31A46.59,46.59,0,0,0,656.17,1116.11Zm45.92-250.35c13.63,0,24.69-40.7,24.69,33.66s-11.05,121.19-24.69,121.19-24.69-46.82-24.69-121.19S688.46,865.76,702.09,865.76Zm.56,288.38a33.1,33.1,0,1,1,33.1-33.1A33.1,33.1,0,0,1,702.66,1154.14Zm46.47-38.2a46.59,46.59,0,0,0-34.86-42.25c.46-9.79.89-20.17,1.27-31.07,100.36-6.22,140.29-53,140.29-145.88,0-93.63-40.56-49-142.69-55.1-.53-9.08-1.11-17.48-1.71-25.1,149.15,3.85,205-37.75,205,80.66C916.41,1005,870.08,1097.41,749.13,1115.94ZM926.39,783.85c0,12.47.12,30.3-5.49,42.64-4.71-7.09-13.22-21.8-29.25-27,.08-2.92-.08-5.94-.08-9,0-25.36,10.83-45.93-190.54-45.93s-189.54,20.56-189.54,45.93c0,3-.17,6-.12,8.82-16.31,5.23-25.06,20.57-29.7,27.76-6.51-10.07-5-30.73-5-43.2,0-37.8-14-68.45,224.27-68.45S926.39,746,926.39,783.85Z"/></svg>