<svg id="图层_1" data-name="图层 1" xmlns="http://www.w3.org/2000/svg" viewBox="0 0 3840 1024"><defs><style>.cls-1{fill:#3b4260;}.cls-2{fill:#49474a;}</style></defs><title>normal-transparent</title><path class="cls-1" d="M1224.26,281.65c-23.17,22.11-49.25,41-68.76,56.33,85.53,28.09,107.38,83.76,113,152.43,15.58,2.29,29.26,4.85,41.28,7.64C1309.17,406.12,1306.7,326.9,1224.26,281.65Z"/><path class="cls-1" d="M995.52,318.14c50.71,0,96.11,1.88,136.35,10.69,21.84-19.95,53.11-50.68,93.12-77.21-62.92-6.7-138.5-10.3-229.47-10.3-92.4,0-168.93,3.71-232.44,10.62,39.91,26.48,71.1,57.17,92.86,77.08C897.32,321.41,943.46,318.14,995.52,318.14Z"/><path class="cls-1" d="M832.9,338.46c-19.45-15.29-45.49-34.07-68.62-56.1-81,45.24-83.67,123.22-84.29,214.33,12.06-2.7,25.82-4.61,41.37-6.82C727,421.83,748.77,366.62,832.9,338.46Z"/><circle class="cls-1" cx="995.39" cy="765.56" r="29.53"/><path class="cls-1" d="M1016.91,537.92c0-66.35-9.86-30-22-30s-22-36.32-22,30S982.73,646,994.89,646,1016.91,604.27,1016.91,537.92Z"/><path class="cls-1" d="M993.79,350.75c-231.86,0-230.66,60.5-229.95,137.48-1.77,10.78-2.62,23.61-2.62,38.88,0,117.94,50.83,218.91,183.6,238.7a50.8,50.8,0,0,1,38-46.26c-.5-10.65-1-21.94-1.38-33.8-110.34-6.28-126.32-57.48-126.32-159.14,0-102.46,16.68-54.09,128.94-60.16.58-9.89,1.21-19,1.86-27.33-65.92,1.49-115.21-5-150.56-4.7,27.24-12.46,75-19.84,158.49-19.84,84.24,0,132.25,7.5,159.57,20.16-35.07-.09-83.67,6.08-148.39,4.42.66,8.31,1.28,17.47,1.87,27.37,111.35,6.61,127.72-42,127.72,60.08,0,101.28-15.67,152.28-125.1,159.06-.42,11.89-.88,23.2-1.38,33.88a50.8,50.8,0,0,1,38,46.07c131.87-20.21,182.39-120.94,182.39-238.51,0-17.82-1.16-32.31-3.59-44.07C1225.43,408.55,1220.41,350.75,993.79,350.75Z"/><path class="cls-1" d="M3073.77,310.76c-.09,2.58-.19,5-.3,7.35a11,11,0,0,1,8.24,10c28.59-4.38,39.54-26.22,39.54-51.71a48.18,48.18,0,0,0-.78-9.55c.1-16.15-1-28.68-50.12-28.68-50.27,0-50,13.12-49.85,29.81a52.75,52.75,0,0,0-.57,8.43c0,25.57,11,47.46,39.81,51.75a11,11,0,0,1,8.24-10c-.11-2.31-.21-4.76-.3-7.33"/><polygon class="cls-2" points="1643.93 683.15 1543.5 538.01 1637.09 402.98 1732.14 402.98 1624.69 533.99 1740.73 683.15 1643.93 683.15"/><rect class="cls-2" x="1467.39" y="230" width="75.76" height="453.15"/><path class="cls-2" d="M1927.3,366.52l37,37c-52.92,10.49-90.56,43.34-90.56,43.34v-155H1798V683.15h75.76V522.28c0-20.43,5.65-37.63,16.78-51.12,11.5-13.94,26.72-21,45.23-21,25.13,0,55.08,12.61,55.08,72.69v160.3h75.48V507.27C2066.57,428.89,2063.71,366.52,1927.3,366.52Z"/><path class="cls-2" d="M2274.33,682.83c-51.82,0-151.14-2.32-151.14-146,0-76,18.9-151.92,140.09-151.92,127.84,0,127.67,93.22,127.67,134.89v30.67H2196.22c1.55,59.64,23,89.71,90.48,94.45,28.73,2,68.83-4.64,92-19.33v34C2352.44,675.1,2315.35,682.83,2274.33,682.83Zm-11.64-256c-51.78,0-65.7,57.23-65.7,83.1h124.83v-7.73C2321.82,450,2297.53,426.84,2262.7,426.84Z"/><path class="cls-2" d="M2801.06,683.15V401.43h75.76v17.68c27-17.79,52.61-22.87,86.84-22.87a67.76,67.76,0,0,1,14.79,1.36l-.35,58.64c-28.61,30.93-49.5-36.35-63.42,19.33-4.85,19.39-37.86-87.39-37.86,34V683.15Z"/><rect class="cls-2" x="3032.49" y="364.31" width="75.76" height="318.84"/><path class="cls-2" d="M2753,514.23c0-38.42-18.56-74.24-44.86-94.35s-53.19-25.52-91.26-25.52c-31.71,0-68.06,10.05-88.21,32.5V403H2453V819.13h75.77l0-169.82c48.72,56.71,218.09,49.75,223.51-88.68C2753.35,533,2753,514.23,2753,514.23ZM2617.71,636.43c-52.59,0-89-25.52-89-97.51,0-83.46,32.57-87,59.13-87,4.42,0,9.69-25.55,11.45-1.76,3.58,48.31,97.33,5.85,97.33,80.35C2696.59,601.63,2665.66,636.43,2617.71,636.43Z"/></svg>