<svg id="图层_1" data-name="图层 1" xmlns="http://www.w3.org/2000/svg" viewBox="0 0 4885 1402"><defs><style>.cls-1{fill:#0071bc;}.cls-2{fill:#fff;}</style></defs><title>reverse</title><rect class="cls-1" width="4885" height="1402"/><circle class="cls-2" cx="953.52" cy="345.12" r="148.12"/><path class="cls-2" d="M1392.25,396.73c-102.11-194.12-290.62-56.1-290.62-56.1s162.7-14.59,75.18,129C1113.17,574.11,953.52,519,953.52,519s-159.65,55.07-223.3-49.37c-87.52-143.63,75.18-129,75.18-129s-188.51-138-290.62,56.1c-94.68,180-53.86,407.32,15.71,529.62C682.15,1193,953.52,1208,953.52,1208s271.37-15,423-281.64C1446.11,804,1486.93,576.72,1392.25,396.73ZM1130.23,715c-6.72-1.56-14.38-3-23.09-4.27-3.12-38.41-15.35-69.56-63.2-85.27,10.91-8.6,23-19.15,36-31.52C1126,619.29,1129.91,663.61,1130.23,715Zm-78.77-138.61c19.47-19.47,11.7-5.92,15.27-2.35s17.12-4.19-2.35,15.27-34.61,28.83-38.18,25.26S1032,595.9,1051.46,576.43Zm-97.36-5c29.66,0,54.3,2,74.81,5.76-13,14.84-23.24,28.14-30.36,39.3a474.11,474.11,0,0,0-90,.11c-7.09-11.14-17.26-24.41-30.27-39.23C899,573.49,924,571.42,954.09,571.42Zm-113.76,2.66c3.57-3.57-4.19-17.12,15.27,2.35s28.83,34.61,25.26,38.18-18.72-5.79-38.18-25.26S836.77,577.65,840.34,574.08Zm-12.76,20.3c12.94,12.32,25,22.83,35.89,31.38-47.07,15.76-59.25,46.64-62.39,84.7-8.7,1.24-16.4,2.3-23.15,3.82C778.27,663.31,782.26,619.68,827.58,594.38Zm80.6,521.73c-121.78-18.15-168.4-110.76-168.4-218.93,0-118.7,56.12-77.3,206.12-80.69-.6,7.61-1.18,16-1.71,25.06-103,5.57-143.82-38.8-143.82,55.18,0,93.24,40.21,140.2,141.41,146,.38,10.88.8,21.23,1.27,31A46.59,46.59,0,0,0,908.17,1116.11Zm45.92-250.35c13.63,0,24.69-40.7,24.69,33.66s-11.05,121.19-24.69,121.19-24.69-46.82-24.69-121.19S940.46,865.76,954.09,865.76Zm.56,288.38a33.1,33.1,0,1,1,33.1-33.1A33.1,33.1,0,0,1,954.66,1154.14Zm46.47-38.2a46.59,46.59,0,0,0-34.86-42.25c.46-9.79.89-20.17,1.27-31.07,100.36-6.22,140.29-53,140.29-145.88,0-93.63-40.56-49-142.69-55.1-.53-9.08-1.11-17.48-1.71-25.1,149.15,3.85,205-37.75,205,80.66C1168.41,1005,1122.08,1097.41,1001.13,1115.94Zm177.26-332.09c0,12.47.12,30.3-5.49,42.64-4.71-7.09-13.22-21.8-29.25-27,.08-2.92-.08-5.94-.08-9,0-25.36,10.83-45.93-190.54-45.93s-189.54,20.56-189.54,45.93c0,3-.17,6-.12,8.82-16.31,5.23-25.06,20.57-29.7,27.76-6.51-10.07-5-30.73-5-43.2,0-37.8-14-68.45,224.27-68.45S1178.39,746,1178.39,783.85Z"/><path class="cls-2" d="M1719.19,365.28q127.78-37.92,206.91-44.87Q1877,437.31,1877,753.78V882.41q76.85-148.12,76.86-243.53a288,288,0,0,0-3.2-42.62l162.23-29.84q-3.21,43.69-10.14,70.83-7.48,30.89-13.87,41-8,13.31-42.16,54.33-18.7,22.9-35.77,54.84h13.88q50.7,0,88.06,29.36,37.36,30.45,79.52,103-35.77,44.32-64.84,77.16t-55.23,58.45q-33.09-87.28-154.78-151-49.12,89.55-51.25,112.08l-164.77,35.92.53-87.62-1.06-155q0-159.21,4.55-272.48T1719.19,365.28Z"/><path class="cls-2" d="M2247.26,373l180.52-56.59-5.33,202.75V650.41l85.86-89h6.41q108.56,33.61,143.16,71,34.57,37.88,34.58,130.16,0,32.55-10.11,113.09-5.86,42.7-9.58,121.09-77.72,64.55-173.52,122.7,23.46-189.66,27.2-243.48l-19.73-126.28q-2.67-11.72-30.94-93.23Q2439,704.95,2422.45,722V856.94q0,2.67-1.06,37.88-1.62,32.53-1.61,52.8,0,16.55,2.67,62.94-57.14,2.11-191.2,21.86,8-65.13,11.2-171.39Q2245.12,754.23,2247.26,373Z"/><path class="cls-2" d="M2771.83,660.39l120.2-102,143.7,10.7q69.45,5.91,98.3,34.8,29.91,30,29.92,65.31,0,15.52-4.28,40.14-5.88,28.92-12.28,86.19-73.2,38-111.12,44.44a448.06,448.06,0,0,1-73.72,6.42,227.47,227.47,0,0,1-33.12-3q52.36,65,102,65,58.76,0,105.78-44h4.28q-53.44,166-197.67,166-74.81,0-108.45-20.83t-51.28-60.33Q2766,910.81,2766,803.48l2.67-91.3Zm161.34,6-13.89,130q46.45,0,99.89-3.2,1.08-35.16,1.08-33.56,0-45.28-24-68.19Q2971.65,668,2933.18,666.41Z"/><path class="cls-2" d="M3202.08,598.22q80.51-13.34,118.91-20.55t72-16.27q8.53,57,11.2,94,44.3-27.37,76.08-52.61t52.59-49.39q72.8,19.76,117.77,58.17,43.88,38.44,43.89,128.59,0,160.1-151,281.23L3473,989.94l-39.48-16.53q-48,201.56-67.2,321l-147.69-13.34q2.67-25.08,9.61-107.48t9.59-145.91q2.67-63.47,2.67-104.56Q3240.5,693.19,3202.08,598.22Zm202.09,135.63a384.42,384.42,0,0,1,5.33,61.91L3409,863q37.88,15,99.27,30.42a379,379,0,0,0,4.27-55.5q0-125.39-42.69-166.5A882.52,882.52,0,0,1,3404.17,733.84Z"/><path class="cls-2" d="M3776.14,718.16l3.75-153.75L3942,579.33l9.09,123.08q12.82-36.37,23-70.64,8-28.36,17.61-43.89,8.53-15,30.42-26.23,20.81-11.23,50.17-11.23,33.09,0,73.11,15.48l-17.61,67.8q-13.36,55-33.62,121.72-64-41.67-86.45-48-42.7,56.09-50.7,84.91,3.19,48.07,6.94,74.23,48,17.09,84.86,17.08-22.45,63-55,137.78-111.16,0-136.28-13.34-26.23-12.8-54.58-43.78Q3774,932.78,3774,844.69,3774,787,3776.14,718.16Z"/><path class="cls-2" d="M4151.46,710.66l14.42-66.83q107.34-17.65,246.23-83.42v94l-1.59,40q0,8,.53,14.42.52,17.63.53,48.59,0,13.9.53,22.42l3.75,94q1.05,30.45,8,136.7-110.06,19.22-191.28,28.84,7.45-67.22,7.47-200.08l-2.14-133.92a127.67,127.67,0,0,1-48,9A200.11,200.11,0,0,1,4151.46,710.66Zm158.06-393.25q40.08,0,69.47,27.77,28.85,27.8,28.86,70.5,0,40.08-28.86,68.89-29.39,28.85-69.47,28.84t-68.94-28.84q-28.83-28.29-28.81-68.89t28.81-69.42Q4268.89,317.42,4309.52,317.41Z"/></svg>