<svg id="图层_1" data-name="图层 1" xmlns="http://www.w3.org/2000/svg" viewBox="0 0 1024 1024"><defs><style>.cls-1{fill:#3b4260;}.cls-2{fill:#fff;}</style></defs><title>reverse-circle</title><rect class="cls-1" width="1024" height="1024" rx="512" ry="512"/><path class="cls-2" d="M716,244.28c-19.23,18.36-40.89,34-57.08,46.77,71,23.32,89.15,69.54,93.79,126.54,12.93,1.9,24.29,4,34.27,6.34C786.52,347.62,784.47,281.85,716,244.28Z"/><path class="cls-2" d="M526.13,274.57c42.1,0,79.79,1.56,113.19,8.87,18.13-16.56,44.09-42.08,77.31-64.1-52.23-5.56-115-8.55-190.51-8.55-76.71,0-140.25,3.08-193,8.82,33.13,22,59,47.47,77.09,64C444.6,277.29,482.9,274.57,526.13,274.57Z"/><path class="cls-2" d="M391.12,291.45c-16.15-12.69-37.77-28.28-57-46.57-67.25,37.55-69.47,102.29-70,177.94,10-2.24,21.44-3.82,34.35-5.67C303.2,360.66,321.27,314.83,391.12,291.45Z"/><circle class="cls-2" cx="526.02" cy="646.02" r="24.52"/><path class="cls-2" d="M543.89,457c0-55.08-8.19-24.93-18.28-24.93S507.32,402,507.32,457s8.19,89.76,18.28,89.76S543.89,512.12,543.89,457Z"/><path class="cls-2" d="M524.69,301.65c-192.49,0-191.5,50.23-190.9,114.14a202,202,0,0,0-2.18,32.28C331.61,546,373.8,629.81,484,646.23a42.17,42.17,0,0,1,31.57-38.4c-.42-8.84-.8-18.21-1.15-28.06-91.6-5.21-104.87-47.72-104.87-132.12,0-85.06,13.85-44.91,107-49.94.48-8.21,1-15.79,1.55-22.69-54.73,1.24-95.64-4.11-125-3.91,22.61-10.35,62.24-16.47,131.58-16.47,69.94,0,109.79,6.23,132.47,16.74-29.11-.08-69.46,5.05-123.19,3.67.55,6.9,1.07,14.5,1.55,22.72,92.44,5.49,106-34.87,106,49.88,0,84.08-13,126.42-103.86,132-.35,9.87-.73,19.26-1.15,28.13a42.17,42.17,0,0,1,31.56,38.25c109.48-16.78,151.42-100.4,151.42-198,0-14.79-1-26.82-3-36.58C717,349.64,712.83,301.65,524.69,301.65Z"/><path class="cls-2" d="M758.46,698.22c0,.8-.06,1.56-.09,2.27a3.41,3.41,0,0,1,2.55,3.09c8.85-1.36,12.24-8.11,12.24-16a14.91,14.91,0,0,0-.24-3c0-5-.31-8.87-15.51-8.87-15.55,0-15.47,4.06-15.43,9.22a16.32,16.32,0,0,0-.18,2.61c0,7.91,3.41,14.69,12.32,16a3.41,3.41,0,0,1,2.55-3.1c0-.71-.06-1.47-.09-2.27"/><polygon class="cls-2" points="316.04 813.45 284.96 768.54 313.92 726.75 343.33 726.75 310.08 767.29 345.99 813.45 316.04 813.45"/><rect class="cls-2" x="261.41" y="673.23" width="23.44" height="140.21"/><path class="cls-2" d="M403.72,715.47l11.45,11.45a66.88,66.88,0,0,0-28,13.41v-48H363.7V813.45h23.44V763.67c0-6.32,1.75-11.64,5.19-15.82a17.35,17.35,0,0,1,14-6.5c7.78,0,17,3.9,17,22.49v49.6h23.35V759C446.81,734.77,445.92,715.47,403.72,715.47Z"/><path class="cls-2" d="M511.09,813.35c-16,0-46.77-.72-46.77-45.17,0-23.51,5.85-47,43.35-47,39.56,0,39.5,28.84,39.5,41.74v9.49H486.93c.48,18.45,7.1,27.76,28,29.22,8.89.62,21.3-1.44,28.48-6v10.53C535.26,811,523.79,813.35,511.09,813.35Zm-3.6-79.21c-16,0-20.33,17.71-20.33,25.71h38.62v-2.39C525.79,741.32,518.27,734.14,507.49,734.14Z"/><path class="cls-2" d="M674.07,813.45V726.28h23.44v5.47c8.36-5.5,16.28-7.08,26.87-7.08a21,21,0,0,1,4.57.42l-.11,18.14c-8.85,9.57-15.31-11.25-19.62,6-1.5,6-11.71-27-11.71,10.53v53.7Z"/><rect class="cls-2" x="745.68" y="714.79" width="23.44" height="98.66"/><path class="cls-2" d="M659.22,761.18c0-11.89-5.74-23-13.88-29.19s-16.46-7.9-28.24-7.9c-9.81,0-21.06,3.11-27.3,10.06v-7.39H566.36V855.52h23.44l0-52.54c15.08,17.55,67.48,15.39,69.16-27.44C659.31,767,659.22,761.18,659.22,761.18ZM617.34,799c-16.27,0-27.55-7.9-27.55-30.17,0-25.82,10.08-26.93,18.3-26.93,1.37,0,3-7.9,3.54-.55,1.11,14.95,30.12,1.81,30.12,24.86C641.75,788.22,632.18,799,617.34,799Z"/></svg>