<svg id="图层_1" data-name="图层 1" xmlns="http://www.w3.org/2000/svg" viewBox="0 0 3840 1024"><defs><style>.cls-1{fill:#3b4260;}</style></defs><title>reverse-transparent</title><path class="cls-1" d="M2262.7,426.84c-51.78,0-65.7,57.23-65.7,83.1h124.83v-7.73C2321.82,450,2297.53,426.84,2262.7,426.84Z"/><path class="cls-1" d="M2599.26,450.12c-1.76-23.79-7,1.78-11.45,1.76-26.55,0-59.13,3.58-59.13,87,0,72,36.44,97.51,89,97.51,47.95,0,78.88-34.8,78.88-106C2696.59,456,2602.84,498.43,2599.26,450.12Z"/><path class="cls-1" d="M0,0V1024H3840V0ZM995.52,241.32c91,0,166.55,3.6,229.47,10.3-40,26.52-71.29,57.26-93.12,77.21-40.24-8.81-85.64-10.69-136.35-10.69-52.06,0-98.2,3.27-139.58,10.89-21.76-19.91-52.95-50.6-92.86-77.08C826.59,245,903.12,241.32,995.52,241.32ZM680,496.69c.61-91.11,3.29-169.1,84.29-214.33,23.12,22,49.16,40.81,68.62,56.1C748.77,366.63,727,421.83,721.37,489.87,705.82,492.08,692.06,494,680,496.69Zm315.39,298.4a29.53,29.53,0,1,1,29.53-29.53A29.53,29.53,0,0,1,995.39,795.09ZM972.86,537.92c0-66.35,9.86-30,22-30s22-36.31,22,30S1007.05,646,994.89,646,972.86,604.27,972.86,537.92Zm73.3,227.71a50.8,50.8,0,0,0-38-46.07c.5-10.68,1-22,1.38-33.88,109.42-6.78,125.1-57.78,125.1-159.06,0-102.08-16.37-53.47-127.72-60.08-.58-9.9-1.21-19.05-1.87-27.37,64.72,1.67,113.32-4.51,148.39-4.42-27.32-12.66-75.33-20.16-159.57-20.16-83.52,0-131.25,7.37-158.49,19.84,35.36-.25,84.64,6.19,150.56,4.7-.66,8.3-1.28,17.44-1.86,27.33-112.27,6.07-128.95-42.3-128.95,60.16,0,101.66,16,152.86,126.32,159.14.42,11.86.88,23.14,1.38,33.8a50.8,50.8,0,0,0-38,46.26C812,746,761.22,645.05,761.22,527.11c0-15.27.85-28.1,2.62-38.88-.72-77-1.91-137.48,229.95-137.48,226.62,0,231.64,57.8,231.19,132.29,2.43,11.76,3.59,26.25,3.59,44.07C1228.56,644.69,1178,745.42,1046.17,765.63Zm222.3-275.22c-5.58-68.66-27.44-124.33-113-152.43,19.51-15.37,45.59-34.22,68.76-56.33,82.44,45.25,84.91,124.47,85.49,216.4C1297.73,495.25,1284,492.7,1268.47,490.41Zm274.69,192.75h-75.76V230h75.76Zm100.77,0L1543.5,538l93.6-135h95.05L1624.69,534l116,149.16Zm422.37,0h-75.48V522.86c0-60.08-30-72.69-55.08-72.69-18.51,0-33.73,7.07-45.23,21-11.14,13.49-16.78,30.69-16.78,51.12V683.15H1798V291.87h75.76v155s37.64-32.85,90.56-43.34l-37-37c136.4,0,139.27,62.37,139,140.75Zm324.64-132.66H2196.22c1.55,59.64,23,89.71,90.48,94.45,28.73,2,68.83-4.64,92-19.33v34c-26.29,15.47-63.39,23.2-104.41,23.2-51.82,0-151.14-2.32-151.14-146,0-76,18.9-151.92,140.09-151.92,127.84,0,127.67,93.22,127.67,134.89Zm361.33,10.15c-5.41,138.43-174.78,145.39-223.51,88.68l0,169.82H2453V403h75.77v23.88c20.16-22.45,56.51-32.5,88.21-32.5,38.07,0,65,5.41,91.26,25.52S2753,475.82,2753,514.23C2753,514.23,2753.35,533,2752.27,560.64Zm225.82-104.4c-28.61,30.93-49.5-36.35-63.42,19.33-4.85,19.39-37.86-87.39-37.86,34V683.15h-75.76V401.43h75.76v17.68c27-17.79,52.61-22.87,86.84-22.87a67.76,67.76,0,0,1,14.79,1.36Zm130.15,226.92h-75.76V364.31h75.76Zm-26.54-355.06a11,11,0,0,0-8.24-10c.11-2.31.21-4.77.3-7.35l-6.09,0c.09,2.57.19,5,.3,7.33a11,11,0,0,0-8.24,10c-28.79-4.29-39.81-26.18-39.81-51.75a52.76,52.76,0,0,1,.57-8.43c-.16-16.69-.41-29.81,49.85-29.81,49.13,0,50.22,12.53,50.12,28.68a48.2,48.2,0,0,1,.78,9.55C3121.25,301.87,3110.3,323.71,3081.71,328.09Z"/></svg>